<svg width="18" height="18" viewBox="0 0 18 18" fill="none" xmlns="http://www.w3.org/2000/svg">
<path d="M12.4916 0.666668H5.50829C2.47496 0.666668 0.666626 2.475 0.666626 5.50833V12.4833C0.666626 15.525 2.47496 17.3333 5.50829 17.3333H12.4833C15.5166 17.3333 17.325 15.525 17.325 12.4917V5.50833C17.3333 2.475 15.525 0.666668 12.4916 0.666668ZM13.375 9.275C13.375 9.61667 13.0916 9.9 12.75 9.9C12.4083 9.9 12.125 9.61667 12.125 9.275V6.75834L5.69163 13.1917C5.56663 13.3167 5.40829 13.375 5.24996 13.375C5.09163 13.375 4.93329 13.3167 4.80829 13.1917C4.56663 12.95 4.56663 12.55 4.80829 12.3083L11.2416 5.875H8.72496C8.38329 5.875 8.09996 5.59167 8.09996 5.25C8.09996 4.90833 8.38329 4.625 8.72496 4.625H12.75C13.0916 4.625 13.375 4.90833 13.375 5.25V9.275Z" fill="#2ED063"/>
</svg>
