<svg width="20" height="20" viewBox="0 0 20 20" fill="none" xmlns="http://www.w3.org/2000/svg">
<path d="M9.5 15.126L15.6633 8.96263C14.6264 8.52969 13.6846 7.89714 12.8917 7.10096C12.0951 6.3078 11.4623 5.36577 11.0292 4.32846L4.86583 10.4918C4.385 10.9726 4.14416 11.2135 3.9375 11.4785C3.69342 11.7912 3.48413 12.1296 3.31333 12.4876C3.16916 12.791 3.06166 13.1143 2.84666 13.7593L1.71166 17.1618C1.65942 17.3176 1.65167 17.4849 1.68928 17.6448C1.72689 17.8048 1.80837 17.951 1.92456 18.0672C2.04074 18.1834 2.18703 18.2649 2.34698 18.3025C2.50694 18.3401 2.67421 18.3324 2.83 18.2801L6.2325 17.1451C6.87833 16.9301 7.20083 16.8226 7.50416 16.6785C7.8625 16.5076 8.20083 16.2985 8.51333 16.0543C8.77833 15.8476 9.01916 15.6068 9.5 15.126ZM17.3733 7.25263C17.9879 6.6381 18.3331 5.80462 18.3331 4.93554C18.3331 4.06647 17.9879 3.23299 17.3733 2.61846C16.7588 2.00393 15.9253 1.65869 15.0562 1.65869C14.1872 1.65869 13.3537 2.00393 12.7392 2.61846L12 3.35763L12.0317 3.45013C12.3959 4.49239 12.992 5.43838 13.775 6.21679C14.5767 7.02321 15.5558 7.63105 16.6342 7.99179L17.3733 7.25263Z" fill="#A3A3A3"/>
</svg>
