<svg width="18" height="18" viewBox="0 0 18 18" fill="none" xmlns="http://www.w3.org/2000/svg">
<path d="M15.7498 5.0476C15.7348 5.0476 15.7123 5.0476 15.6898 5.0476C11.7223 4.6501 7.76225 4.5001 3.83975 4.8976L2.30975 5.0476C1.99475 5.0776 1.71725 4.8526 1.68725 4.5376C1.65725 4.2226 1.88225 3.9526 2.18975 3.9226L3.71975 3.7726C7.70975 3.3676 11.7523 3.5251 15.8023 3.9226C16.1098 3.9526 16.3348 4.2301 16.3048 4.5376C16.2823 4.8301 16.0348 5.0476 15.7498 5.0476Z" fill="white"/>
<path d="M6.37458 4.29C6.34458 4.29 6.31458 4.29 6.27708 4.2825C5.97708 4.23 5.76708 3.9375 5.81958 3.6375L5.98458 2.655C6.10458 1.935 6.26958 0.9375 8.01708 0.9375H9.98208C11.7371 0.9375 11.9021 1.9725 12.0146 2.6625L12.1796 3.6375C12.2321 3.945 12.0221 4.2375 11.7221 4.2825C11.4146 4.335 11.1221 4.125 11.0771 3.825L10.9121 2.85C10.8071 2.1975 10.7846 2.07 9.98958 2.07H8.02458C7.22958 2.07 7.21458 2.175 7.10208 2.8425L6.92958 3.8175C6.88458 4.095 6.64458 4.29 6.37458 4.29Z" fill="white"/>
<path d="M11.4078 17.0624H6.59279C3.97529 17.0624 3.87029 15.6149 3.78779 14.4449L3.30029 6.89243C3.27779 6.58493 3.51779 6.31493 3.82529 6.29243C4.14029 6.27743 4.40279 6.50993 4.42529 6.81743L4.91279 14.3699C4.99529 15.5099 5.02529 15.9374 6.59279 15.9374H11.4078C12.9828 15.9374 13.0128 15.5099 13.0878 14.3699L13.5753 6.81743C13.5978 6.50993 13.8678 6.27743 14.1753 6.29243C14.4828 6.31493 14.7228 6.57743 14.7003 6.89243L14.2128 14.4449C14.1303 15.6149 14.0253 17.0624 11.4078 17.0624Z" fill="white"/>
<path d="M10.2446 12.9375H7.74707C7.43957 12.9375 7.18457 12.6825 7.18457 12.375C7.18457 12.0675 7.43957 11.8125 7.74707 11.8125H10.2446C10.5521 11.8125 10.8071 12.0675 10.8071 12.375C10.8071 12.6825 10.5521 12.9375 10.2446 12.9375Z" fill="white"/>
<path d="M10.875 9.9375H7.125C6.8175 9.9375 6.5625 9.6825 6.5625 9.375C6.5625 9.0675 6.8175 8.8125 7.125 8.8125H10.875C11.1825 8.8125 11.4375 9.0675 11.4375 9.375C11.4375 9.6825 11.1825 9.9375 10.875 9.9375Z" fill="white"/>
</svg>
