<svg width="18" height="18" viewBox="0 0 18 18" fill="none" xmlns="http://www.w3.org/2000/svg">
<path fill-rule="evenodd" clip-rule="evenodd" d="M17.3333 8.99996C17.3333 13.6025 13.6025 17.3333 8.99996 17.3333C4.39746 17.3333 0.666626 13.6025 0.666626 8.99996C0.666626 4.39746 4.39746 0.666626 8.99996 0.666626C13.6025 0.666626 17.3333 4.39746 17.3333 8.99996ZM6.47496 6.47496C6.59215 6.35792 6.751 6.29218 6.91663 6.29218C7.08225 6.29218 7.24111 6.35792 7.35829 6.47496L8.99996 8.11663L10.6416 6.47496C10.7601 6.36456 10.9168 6.30446 11.0787 6.30731C11.2406 6.31017 11.3951 6.37576 11.5096 6.49027C11.6242 6.60479 11.6897 6.75927 11.6926 6.92119C11.6955 7.08311 11.6354 7.23981 11.525 7.35829L9.88329 8.99996L11.525 10.6416C11.6354 10.7601 11.6955 10.9168 11.6926 11.0787C11.6897 11.2406 11.6242 11.3951 11.5096 11.5096C11.3951 11.6242 11.2406 11.6897 11.0787 11.6926C10.9168 11.6955 10.7601 11.6354 10.6416 11.525L8.99996 9.88329L7.35829 11.525C7.23981 11.6354 7.08311 11.6955 6.92119 11.6926C6.75927 11.6897 6.60479 11.6242 6.49027 11.5096C6.37576 11.3951 6.31017 11.2406 6.30731 11.0787C6.30446 10.9168 6.36456 10.7601 6.47496 10.6416L8.11663 8.99996L6.47496 7.35829C6.35792 7.24111 6.29218 7.08225 6.29218 6.91663C6.29218 6.751 6.35792 6.59215 6.47496 6.47496Z" fill="#FAF8FF"/>
</svg>
